<svg version="1.1" id="Layer_1" xmlns="http://www.w3.org/2000/svg" xmlns:xlink="http://www.w3.org/1999/xlink" x="0px" y="0px"
	 width="100%" viewBox="0 0 1024 1024" enable-background="new 0 0 1024 1024" xml:space="preserve">


<path fill="#070707" opacity="1.000000" stroke="none" 
	d="
M1025.000000,908.571533 
	C1023.002014,907.578125 1020.809387,908.613647 1018.741943,908.623535 
	C1004.082581,908.693604 989.420593,908.771362 974.765991,909.123169 
	C955.000244,909.597656 935.263733,910.847229 915.492920,911.390503 
	C902.033020,911.760315 888.560303,911.570374 875.123352,912.180664 
	C846.318787,913.489075 817.507874,912.899231 788.708618,912.776917 
	C753.252869,912.626343 717.789307,911.936829 682.351624,910.786072 
	C661.091492,910.095764 639.831299,909.340576 618.572266,908.604919 
	C596.422791,907.838379 574.287659,907.932007 552.147400,907.989075 
	C531.678528,908.041870 511.197601,908.219666 490.746094,908.986267 
	C464.178711,909.981995 437.583588,910.978516 411.094238,913.129944 
	C376.011688,915.979187 340.956238,914.999023 305.881073,914.162476 
	C290.285645,913.790588 274.680206,913.093750 259.125824,911.925293 
	C238.111481,910.346619 217.074402,909.379272 196.028946,908.465454 
	C188.374100,908.133057 180.746094,908.295532 173.156158,909.410156 
	C156.833069,911.807251 140.672348,909.150208 124.498711,907.693115 
	C83.719177,904.019470 42.883980,902.059021 1.466650,902.952271 
	C1.000000,899.969421 1.000000,896.938782 1.000000,893.454102 
	C2.168689,894.462646 3.799834,893.777893 5.192389,893.765503 
	C36.501545,893.488159 67.795891,893.886963 99.034737,896.152771 
	C105.176628,896.598267 111.293594,897.061890 118.232880,896.975037 
	C113.437889,892.241516 109.363853,887.728638 106.677826,882.017029 
	C101.741440,871.520508 101.092308,860.489014 102.290932,849.349060 
	C104.369194,830.033813 108.884552,811.231445 114.760178,792.687988 
	C124.909973,760.655151 140.467316,731.567139 161.220215,705.237183 
	C170.592911,693.345703 181.250076,682.556274 191.245041,671.203430 
	C199.229019,662.134766 202.006012,650.496521 204.055664,638.807007 
	C207.579407,618.710388 201.632797,600.117920 195.241013,581.519592 
	C190.081833,566.507751 184.787476,551.486877 184.805710,535.260559 
	C184.809601,531.799561 185.426987,528.350281 187.215912,525.749390 
	C189.194275,522.872925 189.514572,520.017212 189.424194,516.936462 
	C189.152145,507.661316 190.908615,498.847504 194.817429,490.424316 
	C195.544418,488.857697 197.207520,486.804047 193.432892,486.261902 
	C170.874222,483.022064 156.555389,469.002563 146.145691,449.888428 
	C136.585342,432.333832 132.531601,413.093506 128.957962,393.732391 
	C125.409355,374.506927 122.099731,355.234497 119.838341,335.805298 
	C119.615952,333.894592 118.294357,333.507172 117.137733,332.641907 
	C101.961227,321.288788 86.159935,310.687103 72.679131,297.241882 
	C58.230209,282.831116 45.395306,267.302216 40.453354,246.765472 
	C37.739185,235.486481 37.047665,224.478134 43.881500,214.192429 
	C51.210682,203.161148 62.549358,200.403946 73.999550,206.934769 
	C87.022453,214.362610 94.684380,226.417709 101.544334,239.075790 
	C113.087196,260.374786 118.742607,283.650116 123.911255,307.064392 
	C124.660942,310.460510 125.837082,313.916321 125.740929,317.314087 
	C125.525154,324.939117 129.708389,328.988800 135.605270,332.858154 
	C157.982529,347.541473 179.855072,362.930878 199.089676,381.730591 
	C214.548050,396.839478 228.018982,413.340576 235.530884,433.944855 
	C236.776001,437.360077 237.934830,436.613159 239.924347,434.911713 
	C281.473175,399.378510 329.731964,376.460205 381.339935,359.918427 
	C407.821716,351.430298 434.634796,343.835175 462.413727,341.534546 
	C483.793915,339.763794 505.352905,339.899506 526.770264,342.288940 
	C539.809082,343.743652 552.823425,345.435944 565.828369,347.173920 
	C594.054443,350.946014 611.417603,335.732971 621.908203,313.042206 
	C628.872314,297.978912 632.430359,281.676331 638.630127,266.307343 
	C644.606506,251.492004 652.405518,237.810349 663.810059,226.686325 
	C679.996704,210.897827 691.541443,192.199326 701.086914,171.960541 
	C704.683228,164.335526 708.848877,156.907578 715.627258,151.432144 
	C727.970093,141.461777 739.223022,143.581207 747.467102,157.309464 
	C751.139954,163.425674 753.758179,170.033997 756.846863,176.422729 
	C759.640442,182.200989 759.690002,182.271622 764.156982,177.504242 
	C770.881836,170.327179 778.050110,163.671112 786.201050,158.129745 
	C789.271423,156.042343 792.552368,153.698608 796.132141,156.699585 
	C799.255249,159.317703 799.396667,163.126602 798.259827,166.748276 
	C797.122864,170.370361 795.763611,173.976395 794.033020,177.348969 
	C787.221375,190.623642 792.725403,200.487869 801.742188,208.186844 
	C809.505310,214.815338 819.008850,218.645096 827.465332,224.176361 
	C841.190552,233.153854 850.896851,245.002411 855.441833,260.920013 
	C856.936035,266.152954 858.727722,271.303009 860.457520,276.466125 
	C864.182312,287.584076 872.432251,294.999542 881.351807,301.853638 
	C881.615906,302.056610 881.894897,302.240601 882.154724,302.448700 
	C893.652710,311.655151 897.523132,312.004761 890.235168,331.412811 
	C887.013367,339.992737 883.049866,348.207489 877.287354,355.449677 
	C876.387512,356.580597 875.415405,357.966919 875.257263,359.325989 
	C873.859985,371.330688 866.071655,377.449982 855.530212,381.066559 
	C846.719482,384.089325 837.456665,385.247009 828.451294,387.482330 
	C810.944641,391.827759 800.448364,404.486542 798.357483,422.441833 
	C797.175354,432.593567 797.231140,442.698792 797.099915,452.838287 
	C796.381287,508.355682 773.695984,552.337952 728.152649,584.348389 
	C727.067078,585.111328 726.144531,586.181396 724.968994,586.726929 
	C721.568787,588.304871 721.498413,589.830811 723.475464,593.176270 
	C727.542664,600.058838 728.657837,608.044617 730.398926,615.794556 
	C737.755127,648.539246 758.971680,668.212952 790.120056,678.264954 
	C819.193726,687.647461 845.934021,701.649719 871.267700,718.589111 
	C892.509155,732.792114 912.280029,748.712830 929.343567,767.768005 
	C937.583679,776.969727 944.739014,787.047424 947.173706,799.563232 
	C951.261719,820.577576 943.293335,836.049927 920.908020,839.969238 
	C896.324463,844.273315 875.782898,834.394714 857.034485,819.702209 
	C847.173706,811.974792 838.452393,802.981812 830.171509,793.647522 
	C809.138733,769.939392 783.200928,754.587341 752.762695,746.140747 
	C725.563477,738.593079 697.825073,733.644653 670.195923,727.703979 
	C669.645996,729.767334 671.390442,730.335083 672.255249,731.311829 
	C687.259460,748.258362 692.923950,768.906494 681.145691,791.426453 
	C680.671509,792.333191 679.377014,793.499695 680.872803,794.411499 
	C681.877380,795.023682 682.621948,793.853760 683.313538,793.159180 
	C693.751160,782.676880 702.958618,771.507263 704.306702,755.894958 
	C704.405518,754.750122 704.666992,753.578979 705.083435,752.509949 
	C706.044434,750.043030 707.608276,747.953735 710.550537,748.363586 
	C713.517456,748.777039 715.126160,750.871826 715.451111,753.859253 
	C716.200256,760.746643 713.838196,766.952209 711.102844,773.036804 
	C699.878540,798.004395 680.096802,813.433777 655.089111,822.876648 
	C640.931519,828.222595 626.564941,832.818420 611.090881,831.582275 
	C608.622070,831.385132 606.110779,831.088318 603.738770,830.415588 
	C590.698242,826.716980 586.303406,815.961609 593.686462,804.623352 
	C602.415710,791.217896 615.889282,784.239014 630.533447,779.170776 
	C630.993713,779.011475 631.521179,779.000122 632.017578,778.998413 
	C635.975220,778.984741 640.873230,778.120239 642.114136,783.087280 
	C643.474792,788.533569 638.420227,789.738159 634.646545,791.269592 
	C625.183655,795.109558 615.047546,797.569946 607.368530,804.977234 
	C604.224854,808.009583 600.516602,811.144958 602.154785,815.925232 
	C603.725098,820.507446 608.397339,820.986206 612.622742,821.085266 
	C631.560669,821.529419 646.948303,813.522278 660.201538,800.701538 
	C667.329285,793.806458 673.114441,786.092285 675.680786,776.184570 
	C678.127319,766.739197 676.273865,757.922119 671.912598,749.757935 
	C664.904053,736.638489 654.586365,726.914429 640.615173,721.043213 
	C629.017700,716.169495 617.148010,711.925781 605.976440,706.017395 
	C585.802979,695.348267 569.231445,680.434875 554.433472,663.302246 
	C543.991943,651.213257 533.175110,639.597595 520.520508,629.591309 
	C511.540009,622.490234 502.351440,621.377930 492.077911,624.021118 
	C471.280151,629.371887 451.518829,636.951599 434.916534,651.212769 
	C426.529572,658.416992 419.179443,666.582520 413.487091,675.971802 
	C405.334412,689.419373 394.456024,700.232422 382.692108,710.360657 
	C376.868835,715.374390 371.896759,721.191956 368.024811,727.824890 
	C361.284454,739.371704 363.036011,753.378967 372.380676,764.364197 
	C379.026855,772.177185 387.325958,778.053528 395.561249,783.990540 
	C406.905273,792.168701 418.334320,800.255676 428.123566,810.331116 
	C436.603119,819.058350 442.882904,828.934021 444.286316,841.458130 
	C446.683533,862.851074 425.773499,873.945129 410.311981,870.567200 
	C397.181519,867.698608 387.797882,859.627258 381.379028,848.612976 
	C367.837341,825.376343 348.570312,807.860657 327.565063,791.812683 
	C320.555084,786.457092 313.990143,780.542236 308.654449,773.404785 
	C295.134888,755.319946 301.752441,738.656921 318.075928,728.139038 
	C332.862091,718.611816 349.670990,713.169067 365.174530,705.086365 
	C385.865784,694.298950 399.793732,677.337830 407.334351,655.653198 
	C411.393829,643.979187 407.965912,632.481506 401.026733,622.161743 
	C399.036621,619.202026 397.433899,619.668945 394.984009,621.373169 
	C384.179230,628.889160 377.019318,639.422485 370.927582,650.706909 
	C360.927002,669.232117 350.152130,687.114319 333.328094,700.431641 
	C318.765656,711.958679 302.088379,719.838196 285.461212,727.745422 
	C268.900360,735.621155 251.810303,742.344849 235.585907,750.972473 
	C210.407242,764.361694 189.706741,782.267700 178.183212,808.929688 
	C173.056442,820.791565 170.192108,833.348694 172.807175,846.593689 
	C174.537018,855.355225 179.329453,862.068970 185.614334,867.979797 
	C188.402679,870.602234 191.340057,873.067810 194.095856,875.722839 
	C202.528244,883.846741 203.040344,889.481750 195.852615,899.194946 
	C209.941483,899.862915 223.644714,900.335815 237.323181,901.200684 
	C260.195953,902.646729 283.041138,904.544617 305.919769,905.878052 
	C329.184723,907.233948 352.471436,908.255859 375.793884,907.224304 
	C381.948425,906.952026 388.121399,907.116028 394.278870,906.889160 
	C456.180695,904.608398 518.079163,902.145203 580.043884,902.819153 
	C602.031494,903.058228 624.020386,903.396912 646.001404,903.968811 
	C664.952759,904.461853 683.916199,904.984070 702.834778,906.139771 
	C744.074646,908.658875 785.355713,908.239990 826.625061,908.252258 
	C854.091003,908.260437 881.567932,907.738831 909.019104,906.826721 
	C925.441467,906.281128 941.887634,905.892700 958.283447,904.891418 
	C980.206360,903.552551 1002.144653,903.720337 1024.536987,903.078491 
	C1025.000000,904.714355 1025.000000,906.428711 1025.000000,908.571533 
z"/>


</svg>